<svg width="99" height="99" viewBox="0 0 99 99" fill="none" xmlns="http://www.w3.org/2000/svg">
<path d="M49.5 0.9375C22.6822 0.9375 0.9375 22.6822 0.9375 49.5C0.9375 76.3178 22.6822 98.0625 49.5 98.0625C76.3178 98.0625 98.0625 76.3178 98.0625 49.5C98.0625 22.6822 76.3178 0.9375 49.5 0.9375ZM52.9688 72.9141C52.9688 73.391 52.5785 73.7812 52.1016 73.7812H46.8984C46.4215 73.7812 46.0312 73.391 46.0312 72.9141V43.4297C46.0312 42.9527 46.4215 42.5625 46.8984 42.5625H52.1016C52.5785 42.5625 52.9688 42.9527 52.9688 43.4297V72.9141ZM49.5 35.625C48.1384 35.5972 46.842 35.0368 45.8889 34.0641C44.9358 33.0913 44.402 31.7837 44.402 30.4219C44.402 29.06 44.9358 27.7524 45.8889 26.7797C46.842 25.8069 48.1384 25.2465 49.5 25.2188C50.8616 25.2465 52.158 25.8069 53.1111 26.7797C54.0642 27.7524 54.598 29.06 54.598 30.4219C54.598 31.7837 54.0642 33.0913 53.1111 34.0641C52.158 35.0368 50.8616 35.5972 49.5 35.625Z" fill="#52A9D8"/>
</svg>
