<svg width="89" height="89" viewBox="0 0 89 89" fill="none" xmlns="http://www.w3.org/2000/svg">
<g clip-path="url(#clip0_1234_1718)">
<path d="M44.4999 4.94434C36.6766 4.94434 29.0289 7.26423 22.524 11.6106C16.0191 15.9571 10.9492 22.1348 7.95534 29.3626C4.96147 36.5905 4.17814 44.5438 5.7044 52.2168C7.23066 59.8898 10.998 66.938 16.5299 72.4699C22.0619 78.0018 29.11 81.7691 36.783 83.2954C44.456 84.8217 52.4093 84.0383 59.6372 81.0445C66.865 78.0506 73.0427 72.9807 77.3892 66.4758C81.7356 59.9709 84.0555 52.3232 84.0555 44.4999C84.0555 34.0091 79.888 23.948 72.4699 16.5299C65.0518 9.11178 54.9907 4.94434 44.4999 4.94434ZM44.4999 79.111C37.6545 79.111 30.9628 77.0811 25.271 73.278C19.5792 69.4749 15.143 64.0693 12.5234 57.745C9.90378 51.4206 9.21836 44.4615 10.5538 37.7476C11.8893 31.0337 15.1857 24.8666 20.0262 20.0261C24.8666 15.1857 31.0337 11.8893 37.7476 10.5538C44.4615 9.21835 51.4207 9.90376 57.745 12.5234C64.0694 15.143 69.4749 19.5792 73.278 25.271C77.0811 30.9628 79.111 37.6545 79.111 44.4999C79.111 53.6793 75.4645 62.4828 68.9737 68.9736C62.4828 75.4645 53.6793 79.111 44.4999 79.111Z" fill="#52A9D8"/>
<path d="M62.201 39.7535C64.6586 39.7535 66.651 37.7612 66.651 35.3035C66.651 32.8458 64.6586 30.8535 62.201 30.8535C59.7433 30.8535 57.751 32.8458 57.751 35.3035C57.751 37.7612 59.7433 39.7535 62.201 39.7535Z" fill="#52A9D8"/>
<path d="M28.2078 39.7535C30.6655 39.7535 32.6578 37.7612 32.6578 35.3035C32.6578 32.8458 30.6655 30.8535 28.2078 30.8535C25.7501 30.8535 23.7578 32.8458 23.7578 35.3035C23.7578 37.7612 25.7501 39.7535 28.2078 39.7535Z" fill="#52A9D8"/>
<path d="M44.8954 49.4443C41.3487 49.4449 37.8536 50.2934 34.7013 51.919C31.5491 53.5446 28.8311 55.9001 26.7741 58.7893C26.3938 59.3237 26.2413 59.9873 26.3503 60.634C26.4592 61.2808 26.8207 61.8578 27.355 62.2381C27.8894 62.6184 28.553 62.7708 29.1997 62.6619C29.8465 62.5529 30.4235 62.1915 30.8038 61.6571C32.3845 59.4368 34.4673 57.6213 36.8826 56.3584C39.2978 55.0955 41.9772 54.4209 44.7025 54.3896C47.4278 54.3583 50.122 54.9711 52.5656 56.1781C55.0093 57.3852 57.1333 59.1524 58.7646 61.3357C59.158 61.8603 59.7437 62.207 60.3928 62.2998C61.0419 62.3925 61.7012 62.2236 62.2257 61.8302C62.7503 61.4368 63.097 60.8511 63.1898 60.202C63.2825 59.5529 63.1136 58.8936 62.7202 58.3691C60.6477 55.5978 57.9575 53.3481 54.8632 51.7989C51.7689 50.2496 48.3559 49.4434 44.8954 49.4443Z" fill="#52A9D8"/>
</g>
<defs>
<clipPath id="clip0_1234_1718">
<rect width="89" height="89" fill="white"/>
</clipPath>
</defs>
</svg>
