<svg width="10" height="18" viewBox="0 0 10 18" fill="none" xmlns="http://www.w3.org/2000/svg">
<path d="M9.73127 1.51763C9.90463 1.3442 9.99802 1.11277 9.99088 0.874256C9.98374 0.635737 9.87667 0.409668 9.69321 0.24578C9.50975 0.0818932 9.26493 -0.00638716 9.01262 0.00036019C8.7603 0.00710754 8.52116 0.10833 8.34779 0.281759L0.260084 8.37701C0.0930622 8.54401 0 8.76512 0 8.99495C0 9.22477 0.0930622 9.44588 0.260084 9.61288L8.34779 17.709C8.43307 17.7968 8.53594 17.8676 8.65043 17.9175C8.76492 17.9674 8.88875 17.9952 9.01472 17.9994C9.14069 18.0037 9.2663 17.9842 9.38424 17.9421C9.50219 17.9001 9.61012 17.8363 9.70177 17.7545C9.79342 17.6727 9.86696 17.5745 9.91811 17.4656C9.96927 17.3567 9.99703 17.2392 9.99977 17.1201C10.0025 17.001 9.9802 16.8825 9.9341 16.7716C9.88801 16.6607 9.81906 16.5596 9.73127 16.4741L2.26013 8.99495L9.73127 1.51763Z" fill="black"/>
</svg>
